<svg xmlns="http://www.w3.org/2000/svg" width="63" height="53" viewBox="0 0 63 53" fill="none"><path fill-rule="evenodd" clip-rule="evenodd" d="M39.359 29.339L31.967 34.933L39.359 39.482L30.45 49.624H35.379L49 37.586L39.359 29.339Z" fill="white"></path><path fill-rule="evenodd" clip-rule="evenodd" d="M58.556 16.26L51.155 22.842L45.19 16.965C45.234 16.854 45.279 16.742 45.277 16.61C45.253 13.745 46.475 14.633 48.437 14.763C50.398 14.895 52.752 11.232 53.797 8.48599C54.843 5.73999 54.453 2.46999 49.614 1.29299C44.775 0.115986 43.468 5.47799 43.076 7.30899C42.68 9.13999 41.504 9.66899 41.504 9.66899H38.233C38.179 9.77999 38.157 9.87799 38.108 9.98699L28.012 0.0369873L18.995 15.57L22.03 14.605L28.012 7.88199L32.717 12.368L0.520996 52.481H4.982L43.115 22.27L51.902 30.64L62.608 14.802L58.556 16.26Z" fill="white"></path></svg>