<svg xmlns="http://www.w3.org/2000/svg" width="357" height="318" viewBox="0 0 357 318" fill="none"><path d="M3.57367 140.733C29.2097 255.332 169.667 314.947 175.64 317.427C176.557 317.807 177.521 317.995 178.5 317.995C179.479 317.995 180.448 317.807 181.369 317.422C187.343 314.937 327.796 255.323 353.436 140.728C368.691 72.5669 331.633 23.9469 290.743 7.62955C249.503 -8.84378 206.472 5.51505 178.497 44.2082C150.519 5.51091 107.503 -8.87045 66.2427 7.62955C25.3734 23.9522 -11.6839 72.5616 3.57074 140.734L3.57367 140.733ZM71.787 21.4988C80.5474 17.9988 90.355 15.9051 100.579 15.9051C125.084 15.9051 151.928 27.9466 172.095 61.613C174.793 66.1234 182.204 66.1234 184.908 61.613C213.47 13.9157 255.46 9.60771 285.214 21.493C320.412 35.545 352.214 77.8317 338.87 137.466C316.86 235.821 198.537 293.28 178.497 302.373C158.466 293.285 40.1369 235.821 18.1236 137.466C4.79022 77.8304 36.5822 35.5491 71.7796 21.4971L71.787 21.4988Z" fill="#FBFBFC"></path><path d="M177.668 164.954H178.94C192.898 164.954 204.259 176.257 204.259 190.152C204.259 204.048 192.903 215.354 178.94 215.354C164.986 215.354 153.628 204.051 153.628 190.152C153.628 186.843 150.947 184.153 147.63 184.153C144.313 184.153 141.632 186.839 141.632 190.152C141.632 208.176 154.565 223.242 171.669 226.631V234.925C171.669 238.234 174.351 240.924 177.668 240.924C180.985 240.924 183.666 238.238 183.666 234.925V227.024C202.008 224.698 216.251 209.07 216.251 190.164C216.251 169.655 199.515 152.974 178.94 152.974L177.668 152.965C163.714 152.965 152.357 141.663 152.357 127.764C152.357 113.864 163.713 102.562 177.668 102.562C191.623 102.562 202.979 113.864 202.979 127.764C202.979 131.072 205.66 133.762 208.977 133.762C212.295 133.762 214.976 131.076 214.976 127.764C214.976 109.296 201.386 93.9735 183.667 91.0962V83.0023C183.667 79.6936 180.986 77.0039 177.669 77.0039C174.351 77.0039 171.67 79.6893 171.67 83.0023V91.0962C153.951 93.9699 140.361 109.296 140.361 127.764C140.366 148.268 157.102 164.953 177.669 164.953L177.668 164.954Z" fill="#FBFBFC"></path><path d="M177.668 264.392C235.806 264.392 283.107 217.092 283.107 158.953C283.107 100.81 235.806 53.5098 177.668 53.5098C119.529 53.5098 72.2285 100.81 72.2285 158.949C72.2285 217.092 119.529 264.392 177.668 264.392ZM177.668 65.5073C229.197 65.5073 271.114 107.428 271.114 158.954C271.114 210.475 229.197 252.401 177.668 252.401C126.138 252.401 84.2207 210.48 84.2207 158.954C84.2207 107.429 126.138 65.5073 177.668 65.5073Z" fill="#FBFBFC"></path></svg>