<svg xmlns="http://www.w3.org/2000/svg" width="8764" height="1806" viewBox="0 0 8764 1806" fill="none"><path d="M805.55 526.948L807.543 526.937L807.54 524.944L806.698 68.1264C806.982 16.9172 751.108 -14.8623 707.239 11.5583L69.9863 395.359C27.8941 420.71 2.15622 466.256 2.15625 515.393L2.15636 1184.8L2.15636 1188.37L5.19835 1186.51L112.925 1120.76L113.886 1120.17L113.883 1119.04L112.103 530.336C115.779 503.778 132.502 488.182 145.838 480.145L676.824 160.106C685.182 155.069 695.837 161.088 695.837 170.846L695.837 525.513V527.524L697.847 527.513L805.55 526.948Z" fill="white" stroke="white" stroke-width="4"></path><path d="M473.813 1003.78L473.398 1000.71L470.772 1002.35L38.02 1272.52C-7.2985 1298.45 -6.53572 1364.32 39.2934 1389.83L689.877 1784.93L689.91 1784.95L689.944 1784.96C733.951 1809.43 787.426 1810.92 830.863 1785.78L830.878 1785.77L830.893 1785.76L1404.29 1440.45L1407.21 1438.69L1404.25 1437L1306.11 1380.91L1305.1 1380.33L1304.1 1380.93L794.191 1682.89C794.189 1682.89 794.187 1682.89 794.185 1682.89C790.962 1684.77 786.213 1686.23 780.544 1687.21C774.906 1688.18 768.498 1688.64 762.06 1688.61C749.092 1688.55 736.438 1686.47 729.72 1682.75L171.068 1341.52L171.033 1341.5L170.997 1341.48C162.264 1336.63 162.32 1324.38 171.028 1319.33L171.061 1319.31L171.094 1319.29L488.214 1119L489.301 1118.31L489.128 1117.04L473.813 1003.78Z" fill="white" stroke="white" stroke-width="4"></path><path fill-rule="evenodd" clip-rule="evenodd" d="M927.061 544.074C1014.3 563.881 1071.98 599.372 1071.98 639.299C1071.77 640.37 1071.65 641.244 1071.55 642.057V642.058C1071.42 643.018 1071.3 643.892 1071.05 644.903V645.837L963.184 1391.1C954.779 1453.2 867.458 1501.77 761.459 1501.77C655.46 1501.77 566.739 1453.2 557.867 1391.56L556.466 1381.84L450.467 646.304C450 644.436 450 642.568 450 640.234V640.233C450 602.562 501.981 569.105 581.315 548.582C631.864 533.702 694.528 524.895 762.393 524.895C823.092 524.895 879.63 531.94 927.061 544.074ZM1056.11 636.03C1056.11 667.316 923.961 716.814 760.993 716.814C598.025 716.814 463.075 661.713 465.877 636.03C467.745 615.951 598.025 555.247 760.993 555.247C923.961 555.247 1056.11 615.951 1056.11 636.03ZM815.54 809.889L668.151 1117.62C667.198 1119.61 668.649 1121.92 670.857 1121.92H759.246C761.219 1121.92 762.655 1123.79 762.143 1125.7L702.612 1347.52C702.299 1348.69 703.945 1349.31 704.477 1348.22L852.982 1044.51C853.957 1042.52 852.506 1040.19 850.287 1040.19H766.948C765.013 1040.19 763.584 1038.39 764.029 1036.5L817.415 810.551C817.691 809.386 816.057 808.809 815.54 809.889Z" fill="#D2F381"></path><path fill-rule="evenodd" clip-rule="evenodd" d="M618.436 304.61C483.285 467.666 699.551 481.067 628.522 612.852C752.822 482.557 537.543 459.476 618.436 304.61ZM859.399 308.769C724.248 471.824 940.513 490.635 869.485 622.419C992.798 492.124 777.519 463.634 859.399 308.769ZM777.74 149C532.1 470.644 837.661 498.937 731.119 670.927C895.865 503.404 611.02 481.067 777.74 149Z" fill="black"></path><path fill-rule="evenodd" clip-rule="evenodd" d="M607.619 304.61C472.468 467.666 680.621 481.067 609.593 612.852C733.892 482.557 526.726 459.476 607.619 304.61ZM848.582 314.177C713.431 477.233 921.583 490.635 850.555 622.419C973.868 492.124 766.702 469.043 848.582 314.177ZM761.514 149C515.875 470.644 818.732 498.937 712.189 670.927C876.935 503.404 594.795 481.067 761.514 149Z" fill="#00E1AF"></path><path d="M2312.4 973.5C2312.4 1033.22 2302.99 1089.26 2284.17 1141.62C2265.36 1193.16 2238.36 1238.56 2203.18 1277.83C2168.82 1317.1 2127.1 1347.78 2078.01 1369.87C2029.74 1391.96 1976.16 1403 1917.26 1403H1494.07C1488.55 1403 1484.07 1398.52 1484.07 1393V1290.29C1484.07 1284.76 1488.55 1280.29 1494.07 1280.29H1917.26C1973.7 1280.29 2022.38 1266.38 2063.29 1238.56C2104.19 1210.75 2135.28 1173.93 2156.55 1128.12C2178.64 1081.49 2189.68 1029.95 2189.68 973.5C2189.68 917.052 2178.64 865.512 2156.55 818.88C2135.28 772.249 2104.19 735.434 2063.29 708.437C2022.38 680.622 1973.7 666.714 1917.26 666.714H1422.71V1430.15C1422.71 1432.1 1420.88 1433.54 1418.98 1433.06L1300 1403V562C1300 552.059 1308.06 544 1318 544H1917.26C1976.16 544 2029.74 555.044 2078.01 577.133C2127.1 599.222 2168.82 630.309 2203.18 670.396C2238.36 709.664 2265.36 755.478 2284.17 807.836C2302.99 859.376 2312.4 914.597 2312.4 973.5Z" fill="white"></path><path d="M3290.59 1393C3290.59 1398.52 3286.11 1403 3280.59 1403H2479.62C2474.1 1403 2469.62 1398.52 2469.62 1393V554C2469.62 548.477 2474.1 544 2479.62 544H2582.34C2587.86 544 2592.34 548.477 2592.34 554V1280.29H3280.59C3286.11 1280.29 3290.59 1284.76 3290.59 1290.29V1393Z" fill="white"></path><path d="M3659.77 1403H3537.05V666.714H3112.64C3107.12 666.714 3102.64 662.237 3102.64 656.714V554C3102.64 548.477 3107.12 544 3112.64 544H4084.18C4089.7 544 4094.18 548.477 4094.18 554V656.714C4094.18 662.237 4089.7 666.714 4084.18 666.714H3659.77V1403Z" fill="white"></path><path d="M5531.01 1393C5531.01 1398.52 5526.54 1403 5521.01 1403H4977.57C4917.85 1403 4863.85 1391.96 4815.59 1369.87C4767.32 1347.78 4725.59 1317.1 4690.42 1277.83C4656.06 1238.56 4629.47 1193.16 4610.65 1141.62C4591.84 1089.26 4582.43 1033.22 4582.43 973.5C4582.43 914.597 4591.84 859.376 4610.65 807.836C4629.47 755.478 4656.06 709.664 4690.42 670.396C4725.59 630.309 4767.32 599.222 4815.59 577.133C4863.85 555.044 4917.85 544 4977.57 544H5521.01C5526.54 544 5531.01 548.477 5531.01 554V656.714C5531.01 662.237 5526.54 666.714 5521.01 666.714H4977.57C4921.12 666.714 4872.44 680.622 4831.54 708.437C4791.45 735.434 4760.36 772.249 4738.28 818.88C4716.19 865.512 4705.14 917.052 4705.14 973.5C4705.14 1029.95 4716.19 1081.49 4738.28 1128.12C4760.36 1173.93 4791.45 1210.75 4831.54 1238.56C4872.44 1266.38 4921.12 1280.29 4977.57 1280.29H5521.01C5526.54 1280.29 5531.01 1284.76 5531.01 1290.29V1393Z" fill="white"></path><path d="M6655.71 1403H6533V1157.57H5862.02C5853.74 1157.57 5847.02 1150.86 5847.02 1142.57V1049.86C5847.02 1041.57 5853.74 1034.86 5862.02 1034.86H6533V666.714H6092.45C6036.82 666.714 5985.69 680.622 5939.06 708.437C5892.43 735.434 5855.2 772.249 5827.39 818.88C5800.39 865.512 5786.89 917.052 5786.89 973.5V1403H5664.18V973.5C5664.18 914.597 5675.22 859.376 5697.31 807.836C5719.4 755.478 5750.08 709.664 5789.35 670.396C5828.61 630.309 5874.02 599.222 5925.56 577.133C5977.92 555.044 6033.55 544 6092.45 544H6640.71C6649 544 6655.71 550.716 6655.71 559V1403Z" fill="white"></path><path d="M7751.39 651.714C7751.39 659.999 7744.68 666.714 7736.39 666.714H6984.43V1403H6861.71V559C6861.71 550.716 6868.43 544 6876.71 544H7736.39C7744.68 544 7751.39 550.716 7751.39 559V651.714ZM7645.86 1019.86C7645.86 1028.14 7639.14 1034.86 7630.86 1034.86H7060.78C7052.5 1034.86 7045.78 1028.14 7045.78 1019.86V927.143C7045.78 918.859 7052.5 912.143 7060.78 912.143H7630.86C7639.14 912.143 7645.86 918.859 7645.86 927.143V1019.86Z" fill="white"></path><path d="M8764 1388C8764 1396.28 8757.28 1403 8749 1403H7890.54C7882.26 1403 7875.54 1396.28 7875.54 1388V559C7875.54 550.716 7882.26 544 7890.54 544H8749C8757.28 544 8764 550.716 8764 559V651.714C8764 659.999 8757.28 666.714 8749 666.714H8013.26C8004.98 666.714 7998.26 673.43 7998.26 681.714V1265.29C7998.26 1273.57 8004.98 1280.29 8013.26 1280.29H8749C8757.28 1280.29 8764 1287 8764 1295.29V1388ZM8659.69 1019.86C8659.69 1028.14 8652.98 1034.86 8644.69 1034.86H8074.62C8066.33 1034.86 8059.62 1028.14 8059.62 1019.86V927.143C8059.62 918.859 8066.33 912.143 8074.62 912.143H8644.69C8652.98 912.143 8659.69 918.859 8659.69 927.143V1019.86Z" fill="white"></path><path d="M1409.03 1439.28L1293.5 1385L1299.52 1381.29C1299.82 1381.11 1300 1380.79 1300 1380.44V1367.5L1422.5 1420.5V1430.27C1422.5 1431.34 1421.93 1432.33 1421 1432.87L1409.95 1439.24C1409.67 1439.4 1409.32 1439.42 1409.03 1439.28Z" fill="#EDECEC"></path></svg>