<svg xmlns="http://www.w3.org/2000/svg" width="901" height="1063" viewBox="0 0 901 1063" fill="none"><path fill-rule="evenodd" clip-rule="evenodd" d="M608.39 657.757C607.815 661.735 609.773 665.651 613.3 667.578L825.029 783.248C842.538 795.103 860.989 797.182 875.762 790.69C890.672 784.139 900.143 769.513 900.143 752.039V310.874C900.205 278.265 880.647 248.773 853.716 232.6L853.695 232.587L554.15 50.8434C551.179 49.0408 547.467 48.9802 544.438 50.6849C541.41 52.3897 539.536 55.5949 539.536 59.0701V132.014C539.536 135.386 541.301 138.512 544.189 140.254L807.411 299.003C807.446 299.024 807.481 299.045 807.516 299.066C807.555 299.088 807.593 299.11 807.632 299.133C815.797 303.765 817.266 312.337 817.194 321.908C817.189 322.526 817.184 323.152 817.183 323.752V690.27L631.606 588.088C628.84 586.565 625.503 586.496 622.676 587.904C619.849 589.311 617.893 592.016 617.441 595.141L608.39 657.757ZM826.806 323.767C826.807 323.203 826.811 322.607 826.816 321.985V321.993C826.811 322.612 826.807 323.205 826.806 323.767Z" fill="white"></path><path d="M475.343 321.551C480.657 321.551 484.965 317.243 484.965 311.929V55.0175C484.965 37.7431 477.722 20.7061 465.393 10.4125C459.136 5.18764 451.45 1.6303 442.797 0.985813C434.129 0.340229 425.185 2.66944 416.515 8.07042L45.9781 232.029C18.2091 248.034 0.867191 277.319 0.325602 309.256C0.32468 309.31 0.324219 309.364 0.324219 309.419V672.087C0.324219 675.532 2.16555 678.714 5.15218 680.43C8.1388 682.147 11.8151 682.136 14.7913 680.401L77.0063 644.148C79.9593 642.428 81.7779 639.27 81.7842 635.852L82.3666 318.166L82.3663 318.076C82.2951 308.592 88.9406 302.924 97.1029 298.294L97.1078 298.291C97.6435 297.987 98.187 297.679 98.7055 297.38C98.7582 297.35 98.8105 297.319 98.8626 297.288L407.882 111.644V311.929C407.882 317.243 412.191 321.551 417.505 321.551H475.343Z" fill="white"></path><path d="M282.575 594.154C282.104 590.936 280.039 588.174 277.087 586.812C274.134 585.449 270.692 585.67 267.938 587.399L25.6905 739.484C-6.11485 757.837 -5.4225 803.937 26.5244 821.859L403.17 1050.79C403.276 1050.85 403.384 1050.92 403.493 1050.98C431.412 1066.5 470.267 1066.99 498.067 1050.89C498.128 1050.86 498.189 1050.82 498.249 1050.79L817.017 856.754C819.934 854.979 821.692 851.791 821.635 848.376C821.579 844.962 819.718 841.833 816.744 840.155L754.251 804.883C751.22 803.173 747.503 803.232 744.528 805.037L464.583 974.985C462.473 976.184 457.277 977.575 450.839 977.732C444.275 977.891 439.232 976.693 436.96 975.209C436.868 975.149 436.775 975.09 436.682 975.033L113.778 779.468L287.678 668.061C290.862 666.021 292.556 662.305 292.008 658.564L282.575 594.154Z" fill="white"></path></svg>