<svg xmlns="http://www.w3.org/2000/svg" width="92" height="92" viewBox="0 0 92 92" fill="none"><path fill-rule="evenodd" clip-rule="evenodd" d="M56 13.121C60.4844 13.1288 64.7812 14.9296 67.93 18.1171C71.0823 21.3085 72.8284 25.6249 72.7855 30.1091C72.7386 34.5935 70.9066 38.8747 67.6917 42.0001C65.9183 43.6642 64.8792 45.9689 64.8011 48.3985H47.1721C47.094 45.9688 46.0549 43.6641 44.2815 42.0001C41.0627 38.8712 39.2268 34.586 39.1838 30.1021C39.1447 25.6138 40.8947 21.2935 44.0549 18.1061C47.2111 14.9147 51.512 13.121 56 13.121ZM79.211 30.891C78.9063 30.9887 78.5704 30.9379 78.3126 30.7504C78.0508 30.5629 77.8985 30.2621 77.8985 29.9418C77.8985 29.6215 78.0508 29.3168 78.3126 29.1293C78.5704 28.9418 78.9063 28.891 79.211 28.9887H84.6798C85.09 29.1254 85.3673 29.5082 85.3673 29.9418C85.3673 30.3715 85.09 30.7543 84.6798 30.891L79.211 30.891ZM47.422 50.289H64.551C65.6565 50.289 66.551 51.1836 66.551 52.289C66.551 53.3945 65.6565 54.289 64.551 54.289H47.422C46.3165 54.289 45.422 53.3945 45.422 52.289C45.422 51.1835 46.3165 50.289 47.422 50.289ZM38.9025 45.6874L35.0002 49.5585C34.676 49.9374 34.6955 50.4999 35.0471 50.8515C35.3986 51.207 35.965 51.2265 36.3401 50.8984L40.2385 47C40.5666 46.625 40.5471 46.0586 40.1916 45.707C39.84 45.3554 39.2775 45.3359 38.8986 45.6601L38.9025 45.6874ZM32.7697 28.9994C33.2931 28.9994 33.7189 29.4252 33.7189 29.9486C33.7189 30.476 33.2931 30.8979 32.7697 30.8979H27.3009C26.9962 30.9994 26.6603 30.9486 26.4025 30.7611C26.1407 30.5697 25.9884 30.269 25.9884 29.9486C25.9884 29.6283 26.1407 29.3276 26.4025 29.1401C26.6603 28.9526 26.9962 28.8979 27.3009 28.9994L32.7697 28.9994ZM40.2385 12.8584L36.3713 8.99902C36.0041 8.62011 35.3986 8.6123 35.0197 8.97949C34.6408 9.34668 34.633 9.95215 35.0002 10.3272L38.8713 14.1866V14.1905C39.047 14.3702 39.2892 14.4757 39.5392 14.4757C39.7931 14.4757 40.0353 14.3702 40.2111 14.1905C40.5549 13.8077 40.5549 13.2296 40.2111 12.8507L40.2385 12.8584ZM56.9375 6.72952H56.9414C56.9414 7.25296 56.5156 7.67874 55.9883 7.67874C55.4648 7.67874 55.0391 7.25296 55.0391 6.72952V1.24902C55.1758 0.838863 55.5586 0.561523 55.9883 0.561523C56.4219 0.561523 56.8047 0.838863 56.9414 1.24902V6.71782L56.9375 6.72952ZM73.0785 14.1983L76.9379 10.3389H76.9418C77.266 9.96392 77.2465 9.39751 76.8949 9.04592C76.5434 8.69436 75.977 8.67483 75.6019 8.99905L71.7425 12.8584H71.7386C71.5394 13.0303 71.4222 13.2803 71.4144 13.542C71.4027 13.8077 71.5042 14.0616 71.6917 14.2491C71.8753 14.4366 72.1331 14.5381 72.3949 14.5264C72.6605 14.5186 72.9066 14.3975 73.0785 14.1983ZM71.7387 46.9993L75.602 50.8977C75.7739 51.0969 76.02 51.218 76.2856 51.2258C76.5473 51.2376 76.8051 51.136 76.9887 50.9485C77.1762 50.761 77.2778 50.5071 77.27 50.2454C77.2582 49.9798 77.141 49.7337 76.9418 49.5579L73.0824 45.6868L73.0785 45.6907C72.6996 45.3469 72.1215 45.3469 71.7387 45.6907C71.559 45.8665 71.4536 46.1047 71.4536 46.3587C71.4536 46.6126 71.559 46.8548 71.7387 47.0305L71.7387 46.9993ZM59.2897 64.1793L59.0084 65.1285H59.0124C58.7897 65.9098 58.0709 66.4488 57.2624 66.441H54.7116C53.9147 66.4293 53.2194 65.8981 53.0007 65.1285L52.7194 64.1793H59.2897ZM39.1607 81.9993C38.8912 82.0267 38.6255 81.9407 38.4263 81.761C38.2271 81.5813 38.1138 81.3235 38.1138 81.054C38.1138 80.7845 38.2271 80.5306 38.4263 80.3509C38.6255 80.1673 38.8912 80.0814 39.1607 80.1087H54.7627C56.1768 80.1048 57.3213 78.9564 57.3213 77.5384C57.3213 75.9486 56.2002 74.2884 54.4111 73.0189C52.3994 71.6439 50.0166 70.9095 47.5791 70.9212H43.5791C38.0596 70.9212 36.3877 69.0423 32.4771 66.7728C26.9459 63.554 22.7388 63.7728 15.9181 64.183L12.6564 64.3549L12.6603 83.6089C13.8009 83.769 14.9103 83.937 16.1408 84.23C18.9103 84.8901 22.0314 86.6206 25.0822 88.3081C26.4924 89.0971 27.8908 89.8667 29.2033 90.5073L29.1994 90.5112C30.7932 91.308 32.5588 91.7143 34.34 91.6909H49C50.5234 91.6674 52.0312 91.3706 53.4492 90.8198L89.4492 78.0818V78.0779C90.8554 77.7693 91.7461 76.3865 91.4492 74.9802C90.7109 70.8005 84.6289 71.8318 81.6875 72.3708L59.1605 76.7614C59.3832 78.0583 59.0238 79.3903 58.1761 80.402C57.3285 81.4098 56.0784 81.9958 54.762 81.9997L39.1607 81.9993ZM1.4617 86.7102H9.7703C10.032 86.7063 10.2859 86.6048 10.4695 86.4212C10.657 86.2337 10.7586 85.9798 10.7625 85.718V61.718C10.7625 61.4524 10.657 61.1985 10.4695 61.011C10.282 60.8235 10.0242 60.718 9.76249 60.718H1.46169C0.906995 60.718 0.461685 61.1673 0.461685 61.718V85.718C0.461685 85.9798 0.567155 86.2337 0.750745 86.4212C0.938245 86.6048 1.18824 86.7063 1.44997 86.7102H1.4617ZM56.0007 24.9992C54.0085 24.9992 52.2077 26.1984 51.446 28.0422C50.6843 29.886 51.1062 32.007 52.5163 33.4172C53.9265 34.8234 56.0436 35.2453 57.8874 34.4836C59.7312 33.7219 60.9304 31.925 60.9304 29.9289C60.9304 28.6203 60.4109 27.3664 59.4851 26.4445C58.5632 25.5187 57.3093 24.9992 56.0007 24.9992ZM58.4616 21.1711C58.2272 21.1086 58.0514 20.9172 58.0124 20.6789L57.7741 19.3586H57.7702C57.7155 19.0579 57.4577 18.8391 57.1491 18.8391H54.8288C54.528 18.8391 54.2702 19.0618 54.2194 19.3586L54.0007 20.6906C53.9577 20.925 53.7819 21.1164 53.5514 21.1789C52.8522 21.3742 52.1803 21.6555 51.5514 22.0109C51.3444 22.1359 51.0866 22.1359 50.8796 22.0109L49.778 21.2414L49.7819 21.2375C49.5319 21.0734 49.1959 21.1008 48.9811 21.3078L47.3522 22.9484C47.1295 23.1594 47.1022 23.5031 47.2819 23.7492L48.0436 24.8508H48.0397C48.1686 25.05 48.1686 25.3078 48.0397 25.511C47.6881 26.1438 47.4108 26.8118 47.2116 27.511C47.153 27.7453 46.9616 27.9211 46.7194 27.9602L45.3991 28.1985C45.1022 28.2531 44.8874 28.5149 44.8913 28.8195V31.1007C44.8874 31.4015 45.1022 31.6593 45.3991 31.7101L46.7194 31.9484C46.9577 31.9875 47.1491 32.1672 47.2116 32.3976C47.4069 33.0968 47.6842 33.7687 48.0397 34.3976C48.1686 34.6007 48.1686 34.8586 48.0397 35.0578L47.278 36.1672L47.2819 36.1711C47.1022 36.4172 47.1295 36.757 47.3522 36.968L49.0006 38.6008C49.2115 38.8195 49.5553 38.8508 49.8014 38.6711L50.903 37.9094H50.8991C51.1061 37.7805 51.3639 37.7805 51.5709 37.9094C52.1998 38.2648 52.8717 38.5422 53.5709 38.7375C53.8053 38.8 53.9811 38.9914 54.0202 39.2297L54.2584 40.55H54.2623C54.3092 40.8469 54.5709 41.0617 54.8717 41.0578H57.1803C57.485 41.0656 57.7467 40.8468 57.8014 40.55L58.0006 39.1984C58.0397 38.9601 58.2155 38.7687 58.4499 38.7101C59.1491 38.5109 59.821 38.2335 60.4499 37.8781C60.653 37.7492 60.9147 37.7492 61.1217 37.8781L62.2233 38.6398H62.2194C62.4655 38.8195 62.8093 38.7882 63.0202 38.5695L64.6491 36.9992C64.86 36.7804 64.8874 36.4484 64.7194 36.1984L64.0007 35.0695C63.8718 34.8625 63.8718 34.6047 64.0007 34.3976C64.3561 33.7687 64.6335 33.0968 64.8288 32.3976C64.8952 32.1672 65.0866 31.9953 65.321 31.9484L66.6413 31.7101C66.9382 31.6593 67.1608 31.4015 67.1608 31.1007V28.7882C67.1608 28.4836 66.9421 28.2218 66.6413 28.1711L65.321 27.9328V27.9289C65.0827 27.8898 64.8913 27.714 64.8288 27.4796C64.6335 26.7804 64.3561 26.1124 64.0007 25.4796C63.8679 25.2765 63.8679 25.0148 64.0007 24.8078L64.7702 23.7062V23.7101C64.9421 23.4601 64.9147 23.1241 64.6999 22.9093L63.0007 21.2804C62.7859 21.0656 62.4499 21.0382 62.1999 21.2101L61.0983 21.9796H61.1022C60.8952 22.1085 60.6335 22.1085 60.4303 21.9796C59.7975 21.6241 59.1295 21.3468 58.4303 21.1476L58.4616 21.1711ZM65.0632 56.1711V56.8703H65.0593C65.0554 59.8547 62.6374 62.2726 59.6491 62.2805H52.3288C49.3444 62.2727 46.9265 59.8547 46.9226 56.8703V56.1711C47.0866 56.1789 47.2546 56.1789 47.4226 56.1711H64.5516C64.7156 56.1789 64.8836 56.1789 65.0516 56.1711H65.0632Z" fill="white"></path></svg>